<?xml version="1.0" standalone="no"?>
<!DOCTYPE svg PUBLIC "-//W3C//DTD SVG 20010904//EN"
 "http://www.w3.org/TR/2001/REC-SVG-20010904/DTD/svg10.dtd">
<svg version="1.0" xmlns="http://www.w3.org/2000/svg"
 width="1024.000000pt" height="1024.000000pt" viewBox="0 0 1024.000000 1024.000000"
 preserveAspectRatio="xMidYMid meet">

<g transform="translate(0.000000,1024.000000) scale(0.100000,-0.100000)"
fill="#000000" stroke="none">
<path d="M7923 6208 c-35 -3 -89 -19 -122 -33 -114 -52 -151 -120 -151 -280
l0 -95 -80 0 -80 0 0 -90 0 -90 83 2 82 2 -77 3 -78 4 0 79 0 79 78 3 77 3 7
112 c8 139 28 188 96 233 64 42 131 60 228 60 97 0 138 -12 130 -38 -2 -9 -7
-43 -11 -75 l-7 -58 -36 8 c-57 11 -117 6 -152 -12 -43 -22 -60 -68 -58 -157
l1 -73 6 81 c7 90 26 129 69 145 33 13 106 13 149 0 31 -9 31 -9 37 35 3 24 9
64 12 89 6 40 4 45 -17 53 -37 14 -118 18 -186 10z"/>
<path d="M7184 6176 c-46 -20 -74 -62 -74 -110 1 -75 51 -126 125 -126 135 0
182 170 64 230 -44 23 -72 24 -115 6z m126 -25 c14 -10 24 -26 24 -35 -1 -9 3
-13 9 -9 6 4 8 -12 5 -48 -5 -45 -11 -58 -39 -82 -29 -24 -40 -28 -78 -24 -56
6 -94 35 -105 79 -11 46 -3 79 30 111 41 41 105 44 154 8z"/>
<path d="M1532 6160 c-177 -48 -277 -142 -318 -300 -28 -110 -3 -215 72 -307
44 -54 138 -100 289 -143 216 -61 266 -88 296 -156 35 -78 3 -163 -79 -212
-42 -24 -56 -27 -137 -26 -118 1 -186 26 -246 92 -24 27 -49 57 -55 67 -10 18
-15 17 -106 -23 -53 -23 -101 -42 -107 -42 -21 0 -11 -25 32 -81 82 -108 173
-166 312 -200 74 -17 108 -20 190 -16 226 13 374 109 426 279 37 116 19 242
-45 328 -54 73 -143 118 -386 195 -150 48 -195 72 -215 115 -24 52 -16 127 16
169 13 17 49 43 79 58 46 23 67 28 130 27 97 0 155 -31 211 -112 l16 -23 89
43 c50 24 90 50 92 59 4 22 -91 124 -145 156 -112 65 -284 88 -411 53z m273
-12 c28 -6 75 -23 105 -39 56 -30 140 -97 140 -112 0 -5 7 -15 15 -23 8 -9 15
-19 15 -23 0 -4 -39 -26 -86 -48 -85 -41 -85 -42 -94 -20 -5 12 -9 18 -9 13
-1 -5 -10 2 -20 16 -42 53 -95 79 -173 85 -62 5 -82 2 -125 -17 -29 -12 -57
-19 -62 -15 -7 3 -8 0 -5 -9 3 -9 1 -16 -5 -16 -6 0 -24 -19 -41 -42 -25 -33
-30 -51 -30 -95 0 -105 40 -139 230 -197 230 -70 289 -96 355 -157 100 -92
124 -282 53 -415 -29 -55 -114 -138 -133 -130 -9 3 -13 2 -10 -4 7 -11 -19
-25 -98 -52 -50 -18 -86 -22 -187 -21 -111 0 -134 3 -205 27 -85 30 -199 102
-188 119 3 5 1 7 -5 3 -6 -3 -31 20 -56 51 -48 61 -54 73 -33 73 6 0 26 7 42
16 29 15 145 64 152 64 2 0 3 -5 3 -12 0 -6 11 -25 24 -42 12 -17 22 -39 20
-49 -1 -9 2 -15 7 -11 5 3 6 11 2 17 -4 7 4 4 17 -6 128 -92 317 -103 408 -23
20 17 38 30 41 29 3 0 5 4 3 9 -1 6 2 16 8 23 5 6 13 32 16 56 6 48 -10 97
-45 138 -11 13 -18 28 -14 34 3 6 1 7 -6 3 -6 -4 -46 6 -89 22 -42 16 -108 37
-145 46 -37 10 -107 33 -155 54 -154 64 -226 165 -223 311 1 76 9 106 41 171
86 169 306 249 545 198z"/>
<path d="M2020 5390 c-6 -11 -8 -20 -6 -20 3 0 10 9 16 20 6 11 8 20 6 20 -3
0 -10 -9 -16 -20z"/>
<path d="M1856 5048 c3 -5 10 -6 15 -3 13 9 11 12 -6 12 -8 0 -12 -4 -9 -9z"/>
<path d="M2340 5925 l0 -125 -75 0 -76 0 3 -87 3 -88 65 -1 c64 -1 64 -1 8 3
l-58 4 0 64 c0 35 -3 70 -6 79 -5 13 6 16 68 18 l73 3 3 122 3 122 107 4 107
3 -112 2 -113 2 0 -125z"/>
<path d="M2540 5919 c0 -71 4 -108 10 -104 6 3 10 52 10 111 0 63 -4 104 -10
104 -6 0 -10 -44 -10 -111z"/>
<path d="M3248 5811 c-125 -40 -198 -106 -256 -230 -33 -70 -36 -85 -40 -191
-4 -103 -2 -117 15 -139 16 -20 28 -24 63 -23 54 2 63 10 91 80 41 104 78 170
116 208 97 95 229 99 329 11 47 -41 70 -81 124 -210 18 -42 40 -82 50 -87 27
-15 76 -12 93 5 52 51 14 287 -63 400 -37 53 -108 119 -159 144 -101 52 -257
66 -363 32z m255 -7 c91 -21 134 -44 195 -104 96 -95 142 -207 142 -352 0
-110 -18 -134 -82 -109 -26 10 -30 17 -83 141 -46 106 -88 158 -156 193 -63
31 -132 36 -199 12 -51 -18 -53 -18 -44 -2 5 8 3 8 -9 -2 -9 -7 -15 -17 -12
-21 7 -11 -20 -31 -30 -22 -5 4 -5 2 -2 -4 4 -6 -2 -19 -12 -28 -10 -10 -21
-14 -23 -9 -3 4 -3 2 -1 -6 2 -8 -3 -21 -10 -30 -8 -9 -31 -60 -51 -113 -21
-53 -44 -99 -53 -102 -23 -9 -76 -7 -93 4 -20 12 -26 157 -10 233 12 59 57
156 90 196 18 20 22 22 38 10 15 -12 16 -12 5 2 -11 13 -9 19 10 36 53 49 174
91 265 92 29 1 85 -6 125 -15z"/>
<path d="M4380 5816 c-136 -39 -239 -142 -287 -286 -26 -80 -26 -259 1 -289
38 -42 104 -22 130 41 81 192 120 249 196 288 36 18 56 21 121 18 67 -3 83 -7
120 -33 52 -36 86 -90 133 -205 40 -97 66 -130 105 -130 50 0 63 19 69 103 6
97 -11 184 -51 267 -42 87 -106 148 -200 195 -74 36 -84 39 -185 41 -67 2
-124 -1 -152 -10z m242 -7 c66 -14 170 -69 164 -86 -3 -7 1 -10 8 -7 16 6 100
-91 91 -106 -4 -6 -1 -9 6 -8 7 2 23 -26 37 -67 21 -56 26 -90 26 -172 1 -56
-3 -106 -9 -112 -5 -5 -23 -12 -38 -15 -40 -7 -64 23 -104 126 -40 101 -92
173 -157 212 -42 27 -58 30 -120 30 -51 0 -81 -6 -106 -19 -19 -11 -41 -20
-47 -20 -7 0 -13 -5 -14 -10 -1 -6 -14 -25 -30 -42 -28 -32 -69 -113 -104
-206 -20 -54 -46 -77 -87 -77 -29 0 -38 14 -15 24 6 3 3 4 -8 3 -23 -2 -32 28
-34 118 -1 86 40 232 61 219 6 -4 8 -3 5 3 -16 26 68 121 154 176 67 41 215
58 321 36z"/>
<path d="M5612 5799 c-54 -27 -142 -107 -142 -130 0 -12 29 -4 43 11 10 12 9
12 -5 1 -34 -26 -17 5 25 46 61 59 119 85 203 91 99 6 108 0 105 -79 -6 -138
-5 -134 -26 -129 -51 13 -161 3 -204 -18 -24 -12 -49 -19 -55 -15 -6 3 -8 3
-4 -2 4 -4 -9 -26 -28 -48 -75 -83 -79 -99 -82 -404 l-3 -273 -95 0 -94 0 0
470 0 470 95 0 94 0 4 -67 3 -68 2 73 2 72 -107 0 -108 0 2 -467 c2 -258 3
-474 3 -480 0 -10 28 -13 104 -13 l104 0 4 273 c6 304 12 341 74 402 62 62
121 89 194 90 36 0 79 -4 96 -8 l31 -8 5 113 c3 76 1 115 -6 120 -6 4 -47 8
-92 8 -70 0 -89 -4 -142 -31z"/>
<path d="M6258 5807 c-141 -48 -243 -148 -299 -292 -28 -70 -32 -93 -32 -180
-1 -55 5 -125 12 -155 34 -139 124 -256 246 -316 150 -74 351 -74 493 1 57 30
86 55 135 119 l37 49 -30 18 c-54 33 -129 69 -144 69 -8 0 -23 -10 -33 -23
-65 -82 -178 -126 -272 -106 -108 22 -185 94 -216 202 -19 67 -32 71 -15 6 15
-58 52 -121 89 -152 23 -19 27 -27 18 -38 -10 -11 -9 -11 4 -1 12 9 25 7 59
-10 62 -31 158 -30 225 2 28 13 52 26 55 29 3 3 24 23 46 44 l41 39 64 -32
c35 -18 66 -36 67 -41 2 -5 8 -7 13 -4 17 11 -7 -36 -36 -71 -40 -49 -97 -86
-175 -115 -90 -33 -262 -34 -362 0 -199 67 -308 231 -308 466 0 55 6 123 14
151 38 142 149 270 275 319 39 14 75 24 80 21 5 -4 12 -2 16 4 8 13 121 13
187 -1 79 -17 181 -74 233 -132 82 -89 135 -228 135 -352 l0 -55 -372 -3 -373
-2 378 -3 377 -2 0 67 c0 186 -100 367 -246 445 -115 62 -267 75 -386 35z"/>
<path d="M2665 5799 l-110 -5 106 -2 c58 -1 108 -4 110 -6 2 -2 3 -38 1 -80
l-4 -75 -106 -4 -107 -3 111 -2 c94 -2 113 1 118 14 9 23 7 162 -1 166 -5 2
-57 1 -118 -3z"/>
<path d="M8280 5799 l-115 -5 115 -2 115 -2 69 -207 c37 -115 84 -251 102
-304 19 -53 37 -110 40 -128 4 -17 10 -31 15 -31 5 0 7 6 4 13 -42 136 -219
663 -224 667 -3 3 -58 3 -121 -1z"/>
<path d="M8980 5802 l-115 -3 -110 -334 c-60 -184 -107 -336 -105 -339 3 -2
55 146 115 330 l110 334 103 0 c56 0 102 -3 102 -7 0 -7 -75 -224 -120 -348
-31 -87 -134 -377 -230 -647 -52 -148 -85 -216 -128 -263 -40 -44 -90 -77
-103 -69 -7 4 -9 3 -6 -3 7 -12 -78 -33 -134 -33 -22 0 -60 5 -85 11 -39 10
-45 15 -40 33 3 12 8 48 12 79 l7 58 31 -7 c17 -4 36 -7 41 -7 51 -1 78 7 103
28 32 27 48 33 36 13 -4 -7 -3 -8 5 -4 6 4 9 12 5 17 -3 5 -2 15 3 22 18 23
63 138 63 160 0 12 -13 56 -29 97 -16 41 -67 176 -112 300 -73 202 -124 338
-164 440 -8 19 -20 54 -28 78 -7 23 -16 40 -19 37 -3 -3 21 -77 54 -163 192
-506 289 -785 283 -811 -15 -59 -67 -152 -100 -177 -31 -23 -42 -26 -93 -22
-31 3 -64 8 -73 12 -13 6 -17 -3 -22 -51 -4 -32 -10 -74 -13 -94 l-6 -36 61
-13 c86 -18 179 -8 243 27 104 56 150 139 268 473 74 210 200 567 272 768 22
62 39 114 37 115 -2 1 -56 1 -119 -1z"/>
<path d="M7130 5320 l0 -480 110 0 110 0 0 480 0 480 -110 0 -110 0 0 -480z
m200 0 l0 -465 -95 -3 -95 -3 0 471 0 471 95 -3 95 -3 0 -465z"/>
<path d="M7978 5793 l114 -4 -4 -77 -3 -77 -110 0 c-62 0 -113 -4 -117 -10 -4
-5 -8 -182 -8 -393 l0 -383 -95 3 -96 3 1 373 c0 250 -3 372 -10 372 -7 0 -9
-122 -8 -377 l3 -378 108 -3 107 -3 0 391 0 390 120 0 120 0 0 90 0 90 -117
-2 -118 -2 113 -3z"/>
<path d="M6340 5651 c-65 -20 -160 -93 -160 -123 0 -5 -4 -7 -8 -4 -4 2 -8 -3
-9 -12 0 -9 -5 -32 -11 -50 -6 -18 -7 -30 -3 -27 5 2 11 18 14 33 7 37 63 110
105 139 66 44 177 51 260 16 48 -20 108 -87 131 -146 11 -29 20 -43 20 -33 1
36 -40 105 -86 146 -67 59 -174 85 -253 61z"/>
<path d="M2342 5324 c-2 -322 3 -359 58 -426 51 -62 108 -83 225 -83 56 0 116
6 136 13 l37 13 -5 87 c-3 48 -7 89 -9 91 -1 1 -26 -5 -54 -14 -62 -21 -112
-14 -146 20 -26 26 -32 21 -10 -7 17 -23 59 -38 105 -38 20 0 43 -6 51 -12 12
-11 12 -10 2 3 -10 13 -8 18 14 27 14 7 27 12 29 12 3 0 5 -38 5 -84 l0 -83
-57 -12 c-165 -33 -295 13 -345 123 -22 49 -23 64 -28 356 l-6 305 -2 -291z"/>
<path d="M2547 5603 c-10 -9 -7 -460 2 -508 6 -25 9 63 10 238 0 152 0 277 -2
277 -2 0 -7 -3 -10 -7z"/>
<path d="M6179 5583 c-13 -16 -12 -17 4 -4 9 7 17 15 17 17 0 8 -8 3 -21 -13z"/>
<path d="M6145 5409 c8 -12 505 -12 525 1 10 7 -75 10 -258 9 -167 0 -270 -4
-267 -10z"/>
</g>
</svg>
